<svg width="669" height="206.99999" xmlns="http://www.w3.org/2000/svg" version="1.2">

 <g>
  <title>Layer 1</title>
  <g id="surface1">
   <path id="svg_1" fill-rule="nonzero" fill="rgb(14.118958%,17.248535%,26.269531%)" d="m120.28125,90.60547l48.03125,0l0,19.52734l-48.03125,0l0,-19.52734zm0,0"/>
   <path id="svg_2" fill-rule="nonzero" fill="rgb(14.118958%,17.248535%,26.269531%)" d="m289.29297,100.76953c0,-17.53906 4.98047,-31.6875 14.74609,-42.84375c10.16797,-11.55859 23.91797,-17.33984 41.25782,-17.33984c17.33984,0 30.89062,5.78125 41.25781,17.33984c9.96484,11.15625 14.74609,25.30469 14.74609,42.84375c0,16.9375 -4.98047,31.08594 -14.74609,42.04297c-10.36719,11.55859 -24.11719,17.14063 -41.25781,17.14063c-17.14063,0 -30.89063,-5.78125 -41.25782,-17.14063c-9.76562,-10.95703 -14.74609,-24.90625 -14.74609,-42.04297zm25.11328,0c0,10.5586 2.39063,19.32813 6.97266,26.10156c5.58203,7.97266 13.55468,11.95704 23.91797,11.95704c10.36328,0 18.33593,-3.98438 23.91796,-11.95704c4.58204,-6.77343 6.97266,-15.54296 6.97266,-26.10156c0,-11.16015 -2.39062,-20.1289 -6.97266,-26.90234c-5.38281,-8.17188 -13.35546,-12.15625 -23.91796,-12.15625c-10.5625,0 -18.53516,3.98437 -23.91797,12.15625c-4.58203,6.97265 -6.97266,15.9414 -6.97266,26.90234zm0,0"/>
   <path id="svg_3" fill-rule="nonzero" fill="rgb(14.118958%,17.248535%,26.269531%)" d="m269.5625,54.73438c-6.97656,-7.57032 -16.94141,-11.35547 -30.29687,-11.35547l-51.41797,0l0,19.52734l44.64453,0c6.77344,0 11.95703,0.99609 15.34375,2.98828c4.38672,2.78906 6.77734,7.375 6.77734,13.94922c0,6.57422 -2.1914,11.35938 -6.77734,13.94922c-3.38672,1.99219 -8.57031,2.98828 -15.34375,2.98828l-44.64453,0l0,60.37891l25.10937,0l0,-40.84766l26.3086,0c13.35546,0 23.32031,-3.78906 30.29687,-11.35937c5.97656,-6.57813 9.16797,-14.94532 9.16797,-25.3086c0,-10.16406 -2.99219,-18.53125 -9.16797,-24.91015zm0,0"/>
   <path id="svg_4" fill-rule="nonzero" fill="rgb(14.118958%,17.248535%,26.269531%)" d="m512.91406,144.01172c-0.39843,-4.58594 -0.59765,-9.16797 -1,-13.75c-0.99609,-15.14453 -6.57422,-24.11328 -16.53906,-26.70313l0,-0.39843c11.95703,-4.98438 17.9375,-14.34766 17.9375,-28.4961c0,-8.76953 -2.99219,-16.14062 -8.96875,-22.12109c-6.37891,-6.17578 -14.35156,-9.16406 -24.51562,-9.16406l-61.38672,0l0,19.52734l52.61718,0c11.5586,0 17.14063,5.17969 17.14063,15.74219c0,10.76172 -5.78125,16.33984 -17.14063,16.33984l-52.61718,0l0,62.3711l25.11328,0l0,-44.4375l25.11328,0c6.17578,0 10.76172,1.39453 13.55078,3.98828c2.78906,2.58984 4.58594,7.17187 5.58203,13.15234c0.39844,4.78125 0.79688,9.5625 1.19531,14.34766c0.59766,5.77734 1.59375,9.96093 2.78907,12.94922l25.11328,0c-2.19141,-2.78907 -3.38672,-7.17188 -3.98438,-13.34766zm0,0"/>
   <path id="svg_5" fill-rule="nonzero" fill="rgb(93.728638%,59.609985%,7.449341%)" d="m54.11328,71.47266l-17.33984,-28.09375l-29.09766,0l32.48438,48.02343l11.76172,-16.73828l2.1914,-3.1914zm0,0"/>
   <path id="svg_6" fill-rule="nonzero" fill="rgb(14.118958%,17.248535%,26.269531%)" d="m73.04688,97.77734l36.67187,-54.39843l-27.50391,0l-23.12109,36.26562l-54.60937,77.71485l28.30078,0l25.3125,-39.45313l24.91406,39.45313l29.89453,0l-39.85937,-59.58204zm0,0"/>
   <path id="svg_7" fill-rule="nonzero" fill="rgb(14.118958%,17.248535%,26.269531%)" d="m524.87109,43.37891l0,21.12109l34.08204,0l0,92.85938l25.10937,0l0,-113.98047l-59.19141,0zm0,0"/>
   <path id="svg_8" fill-rule="nonzero" fill="rgb(14.118958%,17.248535%,26.269531%)" d="m618.76563,66.88672l-23.91407,0l0,-23.91406l23.91407,0l0,23.91406zm0,0"/>
   <path id="svg_9" fill-rule="nonzero" fill="rgb(14.118958%,17.248535%,26.269531%)" d="m620.80078,25.83594l-13.15625,0l0,-13.15235l13.15625,0l0,13.15235zm0,0"/>
   <path id="svg_10" fill-rule="nonzero" fill="rgb(93.728638%,59.609985%,7.449341%)" d="m645.84766,43.125l-16.94141,0l0,-16.9375l16.94141,0l0,16.9375zm0,0"/>
   <path id="svg_11" fill-rule="nonzero" fill="rgb(14.118958%,17.248535%,26.269531%)" d="m665.75,38.5625l-10.96094,0l0,-10.96094l10.96094,0l0,10.96094zm0,0"/>
   <path id="svg_12" fill-rule="nonzero" fill="rgb(93.728638%,59.609985%,7.449341%)" d="m645.62891,11.51563l-8.57032,0l0,-8.56641l8.57032,0l0,8.56641zm0,0"/>
   <path id="svg_13" fill-rule="nonzero" fill="rgb(14.118958%,17.248535%,26.269531%)" d="m16.23828,182.58203c-0.79687,-1.19531 -2.59375,-2.39062 -4.98437,-2.39062c-2.98828,0 -4.38282,1.19531 -4.38282,2.78906c0,1.79297 2.19141,2.39062 4.58204,2.58984c4.38671,0.59766 8.37109,1.59375 8.37109,6.57813c0,4.58203 -4.18359,6.57422 -8.76953,6.57422c-4.1836,0 -7.57422,-1.39453 -9.16797,-5.17969l3.38672,-1.79297c1,2.39063 3.39062,3.38672 5.98047,3.38672c2.39062,0 4.78515,-0.79688 4.78515,-3.1875c0,-1.99219 -1.99609,-2.78906 -4.78515,-2.98828c-4.1836,-0.59766 -8.17188,-1.59766 -8.17188,-6.37891c0,-4.38281 4.1875,-5.97656 8.17188,-6.17578c3.1875,0 6.57812,0.99609 8.17187,4.18359l-3.1875,1.99219zm0,0"/>
   <path id="svg_14" fill-rule="nonzero" fill="rgb(14.118958%,17.248535%,26.269531%)" d="m37.96094,181.1875l-6.57813,0l0,-3.58594c5.98047,0 11.16407,0 17.14063,0l0,3.58594l-6.57813,0l0,17.33594l-3.98437,0l0,-17.33594zm0,0"/>
   <path id="svg_15" fill-rule="nonzero" fill="rgb(14.118958%,17.248535%,26.269531%)" d="m79.01953,198.52344l-4.78515,0l-6.17969,-6.97266l-3.78516,0l0,6.97266l-3.98828,0l0,-20.92188c3.39063,0 6.57813,0 9.96875,0c4.98047,0 7.57031,3.38672 7.57031,6.97266c0,2.78906 -1.39453,5.78125 -5.3789,6.57812l6.3789,7.17188l0,0.19922l0.19922,0zm-14.55078,-17.13672l0,6.77734l5.98047,0c2.58984,0 3.58594,-1.59765 3.58594,-3.39062c0,-1.79297 -1.19532,-3.38672 -3.58594,-3.38672l-5.98047,0zm0,0"/>
   <path id="svg_16" fill-rule="nonzero" fill="rgb(14.118958%,17.248535%,26.269531%)" d="m105.125,194.53906l-10.96094,0l-1.79297,3.98438l-4.18359,0l9.36719,-20.92188l4.38281,0l9.36719,20.92188l-4.38281,0l-1.79688,-3.98438zm-5.57812,-12.55468l-3.78907,8.96875l7.77344,0l-3.98437,-8.96875zm0,0"/>
   <path id="svg_17" fill-rule="nonzero" fill="rgb(14.118958%,17.248535%,26.269531%)" d="m124.46094,181.1875l-6.57813,0l0,-3.58594c5.98047,0 11.16016,0 17.14063,0l0,3.58594l-6.57813,0l0,17.33594l-3.98437,0l0,-17.33594zm0,0"/>
   <path id="svg_18" fill-rule="nonzero" fill="rgb(14.118958%,17.248535%,26.269531%)" d="m162.52734,198.52344l-15.74609,0c0,-6.97266 0,-13.94922 0,-20.92188l15.74609,0l0,3.78516l-11.76171,0l0,4.78125l11.36328,0l0,3.58984l-11.36328,0l0,4.78125l11.76171,0l0,3.98438zm0,0"/>
   <path id="svg_19" fill-rule="nonzero" fill="rgb(14.118958%,17.248535%,26.269531%)" d="m190.62891,182.78125c-1.39453,-1.39453 -3.58985,-1.99219 -5.38282,-1.99219c-4.58203,0 -7.17187,3.38672 -7.17187,7.77344c0,3.38672 1.99219,6.97266 7.17187,6.97266c1.59375,0 2.99219,-0.39844 4.78516,-1.59375l0,-3.78516l-5.38281,0l0,-3.58984l8.96875,0l0,8.76953c-1.99219,2.39062 -4.58203,3.78515 -8.3711,3.78515c-7.77343,0 -10.96093,-5.17968 -10.96093,-10.75781c0,-5.98047 3.58593,-11.35937 10.96093,-11.35937c2.79297,0 5.58204,0.99609 7.77344,3.1875l-2.39062,2.58984zm0,0"/>
   <path id="svg_20" fill-rule="nonzero" fill="rgb(14.118958%,17.248535%,26.269531%)" d="m214.14844,186.16797l5.57812,-8.56641l4.78516,0l0,0.19922l-8.37109,12.15625l0,8.56641l-3.98829,0l0,-8.56641l-7.97265,-12.15625l0,-0.19922l4.78515,0l5.1836,8.56641zm0,0"/>
   <path id="svg_21" fill-rule="nonzero" fill="rgb(14.118958%,17.248535%,26.269531%)" d="m267.75781,192.54688c0,1.19531 0.59766,2.1914 1.79688,2.1914l0,3.98438c-1.59766,0 -3.19141,-0.39844 -3.98828,-2.78907c-1.39453,2.19141 -3.78516,2.98829 -5.97657,2.98829c-4.58593,0 -8.37109,-1.39454 -8.37109,-6.57422c0,-1.79297 1.19531,-3.78516 3.1875,-4.38282c-1.79297,-0.60156 -2.78906,-2.59375 -2.78906,-4.1875c0,-4.38281 4.18359,-6.17578 7.97265,-6.17578c3.58594,0 7.57032,1.39453 7.57032,5.97657l-3.78516,0c0,-1.99219 -1.79297,-2.58985 -3.98828,-2.58985c-2.98828,0 -4.18359,1.79297 -3.98438,2.98828c0,2.19141 2.58985,2.78907 3.98438,2.78907c3.19141,0 6.57812,0 9.76953,0l0,3.1914l-1.79687,0l0,2.58985l0.39843,0zm-12.35547,-0.39844c0,2.1914 2.19141,2.98828 4.38672,2.98828c1.39453,0 4.38282,-0.79688 4.38282,-2.78906l0,-2.98828c-1.59375,0 -2.98829,0 -4.58204,0c-2.99218,0 -4.1875,1.59375 -4.1875,2.78906zm0,0"/>
   <path id="svg_22" fill-rule="nonzero" fill="rgb(14.118958%,17.248535%,26.269531%)" d="m316.19141,183.37891l-6.77735,9.16797l-0.79687,0l-6.57813,-9.16797l0,15.14453l-3.98437,0l0,-20.92188l4.58203,0l6.57812,8.96485l6.57813,-8.96485l4.58203,0l0,20.92188l-3.98437,0l0,-15.14453l-0.19922,0zm0,0"/>
   <path id="svg_23" fill-rule="nonzero" fill="rgb(14.118958%,17.248535%,26.269531%)" d="m348.27734,194.53906l-10.96093,0l-1.79297,3.98438l-4.1875,0l9.36719,-20.92188l4.38671,0l9.36719,20.92188l-4.38281,0l-1.79688,-3.98438zm-5.3789,-12.55468l-3.78906,8.96875l7.77343,0l-3.98437,-8.96875zm0,0"/>
   <path id="svg_24" fill-rule="nonzero" fill="rgb(14.118958%,17.248535%,26.269531%)" d="m384.15234,198.52344l-4.78125,0l-6.17968,-6.97266l-3.78516,0l0,6.97266l-3.98828,0l0,-20.92188c3.39062,0 6.57812,0 9.96484,0c4.98438,0 7.57422,3.38672 7.57422,6.97266c0,2.78906 -1.39453,5.78125 -5.3789,6.57812l6.375,7.17188l0,0.19922l0.19921,0zm-14.54687,-17.13672l0,6.77734l5.97656,0c2.59375,0 3.58985,-1.59765 3.58985,-3.39062c0,-1.79297 -1.19532,-3.38672 -3.58985,-3.38672l-5.97656,0zm0,0"/>
   <path id="svg_25" fill-rule="nonzero" fill="rgb(14.118958%,17.248535%,26.269531%)" d="m412.25391,177.80078l-9.36719,9.96485l10.16406,10.55859l0,0.19922l-4.78125,0l-8.76953,-9.16406l0,9.16406l-3.98437,0l0,-20.92188l3.98437,0l0,8.76563l7.97266,-8.76563l4.78125,0.19922zm0,0"/>
   <path id="svg_26" fill-rule="nonzero" fill="rgb(14.118958%,17.248535%,26.269531%)" d="m440.15625,198.52344l-15.74219,0c0,-6.97266 0,-13.94922 0,-20.92188l15.74219,0l0,3.78516l-11.75781,0l0,4.78125l11.35937,0l0,3.58984l-11.35937,0l0,4.78125l11.75781,0l0,3.98438zm0,0"/>
   <path id="svg_27" fill-rule="nonzero" fill="rgb(14.118958%,17.248535%,26.269531%)" d="m459.29297,181.1875l-6.57813,0l0,-3.58594c5.98047,0 11.16016,0 17.14063,0l0,3.58594l-6.57813,0l0,17.33594l-3.98437,0l0,-17.33594zm0,0"/>
   <path id="svg_28" fill-rule="nonzero" fill="rgb(14.118958%,17.248535%,26.269531%)" d="m491.77734,192.34766l-5.97656,0l0,6.17578l-3.98828,0l0,-20.92188c3.1875,0 6.57813,0 9.76563,0c10.36328,0 10.36328,14.7461 0.19921,14.7461zm-5.97656,-3.58594l5.97656,0c4.98438,0 4.98438,-7.375 0,-7.375l-5.97656,0l0,7.375zm0,0"/>
   <path id="svg_29" fill-rule="nonzero" fill="rgb(14.118958%,17.248535%,26.269531%)" d="m515.49609,177.60156l0,17.33594l10.76172,0l0,3.58594l-14.75,0l0,-20.92188l3.98828,0zm0,0"/>
   <path id="svg_30" fill-rule="nonzero" fill="rgb(14.118958%,17.248535%,26.269531%)" d="m553.36328,194.53906l-10.96094,0l-1.79296,3.98438l-4.1875,0l9.36718,-20.92188l4.38672,0l9.36719,20.92188l-4.38672,0l-1.79297,-3.98438zm-5.38281,-12.55468l-3.78516,8.96875l7.77344,0l-3.98828,-8.96875zm0,0"/>
   <path id="svg_31" fill-rule="nonzero" fill="rgb(14.118958%,17.248535%,26.269531%)" d="m588.04297,195.93359c-2.19141,2.19141 -4.98438,3.1875 -7.97266,3.1875c-7.77343,0 -10.96093,-5.3789 -11.16015,-10.75781c0,-5.38281 3.58593,-10.96094 11.16015,-10.96094c2.78907,0 5.58203,0.9961 7.77344,3.1875l-2.58984,2.58985c-1.39844,-1.39453 -3.19141,-1.99219 -4.98438,-1.99219c-4.98437,0 -7.17578,3.78516 -7.17578,7.17578c0,3.38672 1.99219,7.17188 7.17578,7.17188c1.79297,0 3.78516,-0.79688 5.1836,-2.19141l2.58984,2.58984zm0,0"/>
   <path id="svg_32" fill-rule="nonzero" fill="rgb(14.118958%,17.248535%,26.269531%)" d="m615.34766,198.52344l-15.54688,0c0,-6.97266 0,-13.94922 0,-20.92188l15.7461,0l0,3.78516l-11.75782,0l0,4.78125l11.35938,0l0,3.58984l-11.35938,0l0,4.78125l11.75782,0l0,3.98438l-0.19922,0zm0,0"/>
  </g>
 </g>
</svg>